<?xml version="1.0" encoding="UTF-8" standalone="no"?>
<!-- Created with Inkscape (http://www.inkscape.org/) -->

<svg
   xmlns:dc="http://purl.org/dc/elements/1.1/"
   xmlns:cc="http://creativecommons.org/ns#"
   xmlns:rdf="http://www.w3.org/1999/02/22-rdf-syntax-ns#"
   xmlns:svg="http://www.w3.org/2000/svg"
   xmlns="http://www.w3.org/2000/svg"
   xmlns:sodipodi="http://sodipodi.sourceforge.net/DTD/sodipodi-0.dtd"
   xmlns:inkscape="http://www.inkscape.org/namespaces/inkscape"
   width="533.47198"
   height="532.79156"
   id="svg2"
   version="1.1"
   inkscape:version="0.92.2pre0 (973e216, 2017-07-25)"
   sodipodi:docname="OM_Openclipart.svg">
  <defs
     id="defs4">
    <filter
       inkscape:collect="always"
       id="filter4905"
       style="color-interpolation-filters:sRGB">
      <feGaussianBlur
         inkscape:collect="always"
         stdDeviation="0.95064289"
         id="feGaussianBlur4907" />
    </filter>
    <filter
       inkscape:collect="always"
       id="filter4981"
       style="color-interpolation-filters:sRGB">
      <feGaussianBlur
         inkscape:collect="always"
         stdDeviation="1.5065625"
         id="feGaussianBlur4983" />
    </filter>
    <filter
       inkscape:collect="always"
       id="filter4990"
       style="color-interpolation-filters:sRGB">
      <feGaussianBlur
         inkscape:collect="always"
         stdDeviation="1.5110156"
         id="feGaussianBlur4992" />
    </filter>
    <filter
       inkscape:collect="always"
       id="filter5016"
       style="color-interpolation-filters:sRGB">
      <feGaussianBlur
         inkscape:collect="always"
         stdDeviation="0.98826929"
         id="feGaussianBlur5018" />
    </filter>
  </defs>
  <sodipodi:namedview
     id="base"
     pagecolor="#ffffff"
     bordercolor="#666666"
     borderopacity="1.0"
     inkscape:pageopacity="0.0"
     inkscape:pageshadow="2"
     inkscape:zoom="0.38663943"
     inkscape:cx="-254.37898"
     inkscape:cy="67.597285"
     inkscape:document-units="px"
     inkscape:current-layer="layer1"
     showgrid="false"
     inkscape:window-width="1600"
     inkscape:window-height="818"
     inkscape:window-x="0"
     inkscape:window-y="0"
     inkscape:window-maximized="1"
     units="cm" />
  <metadata
     id="metadata7">
    <rdf:RDF>
      <cc:Work
         rdf:about="">
        <dc:format>image/svg+xml</dc:format>
        <dc:type
           rdf:resource="http://purl.org/dc/dcmitype/StillImage" />
        <dc:title />
      </cc:Work>
    </rdf:RDF>
  </metadata>
  <g
     inkscape:label="Livello 1"
     inkscape:groupmode="layer"
     id="layer1"
     transform="translate(1.0420041,-520.1621)">
    <g
       id="g853">
      <path
         transform="matrix(1.4070981,0,0,1.4070981,-260.13125,37.947853)"
         id="path4973"
         d="m 373.125,389.9375 c -78.05566,0 -141.34375,63.25694 -141.34375,141.3125 0,39.02785 15.82727,74.35851 41.40625,99.9375 -25.04329,-25.50305 -40.46875,-60.4687 -40.46875,-99.03125 0,-78.05556 63.28809,-141.3125 141.34375,-141.3125 37.80821,0 72.13535,14.85569 97.5,39.03125 -25.45224,-24.70482 -60.16399,-39.9375 -98.4375,-39.9375 z m 115.15625,31.59375 c 27.21478,28.53682 43.90625,67.17117 43.90625,109.71875 0,87.8403 -71.22226,159.0625 -159.0625,159.0625 -43.73757,0 -83.33702,-17.67505 -112.09375,-46.25 28.82784,29.10898 68.83179,47.15625 113.03125,47.15625 87.84024,0 159.0625,-71.2222 159.0625,-159.0625 0,-43.01034 -17.10273,-82.00074 -44.84375,-110.625 z"
         style="fill:#000000;fill-opacity:1;fill-rule:nonzero;stroke:none;filter:url(#filter4981)"
         inkscape:connector-curvature="0" />
      <path
         transform="matrix(1.4070981,0,0,1.4070981,-260.13125,37.947853)"
         inkscape:connector-curvature="0"
         id="path4985"
         d="m 373.41457,372.91998 c -87.84024,0 -159.0625,71.19109 -159.0625,159.03125 0,44.38291 18.17806,84.52067 47.5,113.375 -28.25261,-28.71051 -45.6875,-68.10511 -45.6875,-111.5625 0,-87.84016 71.22226,-159.03125 159.0625,-159.03125 43.76145,0 83.39569,17.68658 112.15625,46.28125 -28.8969,-29.6766 -69.27462,-48.09375 -113.96875,-48.09375 z m 100.84375,60.03125 c 25.04102,25.49497 40.5,60.4395 40.5,99 0,78.0557 -63.2881,141.34375 -141.34375,141.34375 -37.80821,0 -72.1666,-14.8481 -97.53125,-39.03125 25.53199,25.24112 60.609,40.84375 99.34375,40.84375 78.05566,0 141.34375,-63.28805 141.34375,-141.34375 0,-39.49506 -16.1917,-75.17251 -42.3125,-100.8125 z"
         style="opacity:0.78819442;fill:#ffffff;fill-opacity:1;fill-rule:nonzero;stroke:none;filter:url(#filter4990)" />
      <g
         id="g843">
        <ellipse
           ry="198.86839"
           rx="198.86838"
           cy="786.77887"
           cx="266.18991"
           style="fill:#ffffff;fill-opacity:1;fill-rule:nonzero;stroke:none;stroke-width:1.09196079"
           id="path4913" />
        <path
           style="fill:#ff6600;fill-opacity:1;fill-rule:nonzero;stroke:none;stroke-width:1.40709805"
           d="m 266.18991,562.98429 c -123.59983,0 -223.816541,100.17272 -223.816541,223.77244 0,123.59992 100.216711,223.81667 223.816541,223.81667 123.59984,0 223.81654,-100.21675 223.81654,-223.81667 0,-123.59972 -100.2167,-223.77244 -223.81654,-223.77244 z m 0,24.93209 c 109.83197,0 198.88452,89.00852 198.88452,198.84035 0,109.83203 -89.05255,198.8846 -198.88452,198.8846 -109.83197,0 -198.884521,-89.05257 -198.884521,-198.8846 0,-109.83183 89.052551,-198.84035 198.884521,-198.84035 z"
           id="path4926"
           inkscape:connector-curvature="0" />
        <path
           sodipodi:nodetypes="ccsccsccccccccccscssssssssccscccccsccssccscccccccc"
           style="fill:#ff6600;stroke-width:1.40709805"
           d="m 204.43323,925.26396 c -26.43457,-4.61452 -54.41287,-25.28097 -67.23148,-49.01204 -10.84845,-20.99897 -16.34523,-43.48299 -16.53031,-67.61529 -0.11693,-15.24183 2.01936,-22.19768 3.69494,-12.03069 5.78132,31.66266 23.43726,68.41647 50.39139,82.66505 21.60861,10.90374 53.8155,7.0452 69.14445,-8.28373 7.22203,-7.22207 10.55218,-15.08212 10.58984,-24.99485 -3.68428,-32.31955 -31.71018,-33.71553 -55.239,-30.07686 -3.35409,-11.86741 -8.82109,-31.16836 -12.2061,-43.43881 16.27339,5.29562 48.41941,2.39286 56.95687,-11.98636 7.71387,-14.91693 -4.2848,-28.80738 -24.64615,-28.53187 -19.28001,-1.62865 -39.52236,11.85004 -51.71343,21.04709 -7.46429,-12.46565 -12.27853,-22.46017 -19.3572,-36.20088 10.70845,-8.60347 23.69937,-15.38303 35.86996,-19.57584 17.96062,-6.02729 44.8385,-6.13827 58.17209,-0.24019 23.95673,12.60297 29.46796,44.66608 20.24648,65.57997 -4.71106,10.05977 -11.82069,19.00385 -19.32663,24.31353 -3.05309,2.15976 -5.56461,4.39535 -5.58113,4.96804 -0.0515,1.78322 18.43199,9.51199 22.74804,9.51199 10.07753,0 18.76881,-8.90032 29.85435,-30.57245 13.33409,-26.0679 28.39098,-39.20499 48.67863,-42.47196 29.16806,-4.69696 57.13698,18.79726 66.85533,56.15923 1.30846,5.03037 2.85642,16.11127 3.43992,24.62421 2.29096,33.42421 -4.86315,57.30028 -22.55237,75.26625 -21.37244,21.70688 -51.2899,24.39584 -71.29655,6.4082 -12.11718,-10.89446 -18.58023,-27.84295 -18.63484,-48.86781 -0.0273,-10.49414 2.21302,-18.77829 4.11538,-15.21791 9.07374,27.90696 29.46722,37.32201 55.79019,27.97311 11.27109,-4.21707 25.76863,-18.62576 29.88113,-29.69821 8.01409,-21.57672 6.21788,-46.74647 -4.4334,-62.12352 -22.32699,-23.37732 -43.54489,7.55147 -50.86844,19.81166 -9.45211,15.98322 -17.54743,24.81178 -26.98478,29.42903 -13.04402,6.65233 -20.62903,1.0155 -34.25937,4.68634 2.61897,6.82028 5.84897,13.57464 7.75828,20.75948 8.65391,33.15841 -0.8102,63.46758 -24.48446,78.41251 -12.35827,7.80138 -33.18873,11.77784 -48.84163,9.32358 z m 97.22751,-202.82192 c -25.96908,-3.87298 -50.65343,-28.68543 -55.53211,-55.82026 -2.3409,-13.01999 -0.92954,-14.09994 5.1216,-4.81906 6.08504,9.33289 16.04327,18.50853 27.36717,24.41912 18.03054,8.12558 38.25269,5.6045 51.99494,-1.1928 6.78629,-3.36385 15.58296,-9.25148 20.57592,-13.77149 l 8.72169,-7.89552 c 10.16314,13.06235 19.58402,25.378 22.65893,29.96656 -20.59537,20.58514 -52.79256,32.77946 -80.90814,29.11345 z m -26.60949,-63.5207 25.50733,-25.0038 27.13348,24.84143 -26.28274,25.78975 z"
           id="path4124"
           inkscape:connector-curvature="0" />
        <path
           style="fill:#000000;filter:url(#filter4905)"
           d="m 398.67211,423.75938 -18.125,17.78125 1,1 18.125,-17.75 18.25,16.65625 0.0312,-0.0312 -19.28125,-17.65625 z m -38.84375,15.5 c -0.86396,0.0348 -0.77955,2.54514 0.15625,7.75 1.70681,9.49318 6.8539,18.57265 13.8125,25.6875 -6.45509,-6.95145 -11.156,-15.61676 -12.78125,-24.65625 -1.10776,-6.16131 -1.03688,-8.56322 0.40625,-7.53125 -0.70178,-0.83668 -1.23317,-1.26453 -1.59375,-1.25 z m 81.03125,5.4375 -6.1875,5.625 c -3.54841,3.21229 -9.8021,7.39062 -14.625,9.78125 -9.76637,4.83072 -24.15476,6.61846 -36.96875,0.84375 -4.52683,-2.36281 -8.74827,-5.46815 -12.34375,-8.90625 3.80708,3.83802 8.41137,7.31545 13.375,9.90625 12.81399,5.77471 27.17113,3.98697 36.9375,-0.84375 4.8229,-2.39063 11.07659,-6.56896 14.625,-9.78125 l 6.0625,-5.5 c -0.29797,-0.3835 -0.57492,-0.73931 -0.875,-1.125 z m -103,20.8125 c -7.55544,0.0312 -15.5241,1.10825 -21.90625,3.25 -8.64942,2.97976 -17.88969,7.79191 -25.5,13.90625 5.03069,9.76528 8.44526,16.89088 13.75,25.75 0.0947,-0.0714 0.21647,-0.14662 0.3125,-0.21875 -4.89456,-8.29541 -8.2367,-15.19311 -13.03125,-24.5 7.61031,-6.11434 16.81933,-10.92649 25.46875,-13.90625 12.7643,-4.28349 31.8678,-4.37916 41.34375,-0.1875 2.54987,1.34141 4.81058,2.98625 6.78125,4.875 -2.19658,-2.31003 -4.78938,-4.30106 -7.78125,-5.875 -4.73798,-2.09583 -11.88206,-3.12495 -19.4375,-3.09375 z m 93.90625,24.9375 c -1.9184,-0.0308 -3.86913,0.0933 -5.8125,0.40625 -14.41808,2.32178 -25.11745,11.6615 -34.59375,30.1875 -7.8783,15.402 -14.05682,21.71875 -21.21875,21.71875 -2.54699,0 -11.99971,-3.77075 -15.125,-5.78125 -0.002,0.0116 -0.031,0.0211 -0.0312,0.0312 -0.0366,1.2673 13.12016,6.78125 16.1875,6.78125 7.16193,0 13.34045,-6.31675 21.21875,-21.71875 9.4763,-18.526 20.17567,-27.86572 34.59375,-30.1875 11.0124,-1.77334 21.78554,2.08451 30.5,10.09375 -7.37969,-7.19658 -16.33329,-11.38033 -25.71875,-11.53125 z m -74.875,8.75 c 3.51682,3.79821 4.42046,9.06501 1.59375,14.53125 -6.06742,10.21906 -28.90354,12.29475 -40.46875,8.53125 2.40567,8.72039 6.27256,22.40979 8.65625,30.84375 0.23544,-0.0364 0.4821,-0.0588 0.71875,-0.0937 -2.3985,-8.48457 -6.0574,-21.34885 -8.375,-29.75 11.56521,3.7635 34.40133,1.68781 40.46875,-8.53125 3.08369,-5.96317 1.75226,-11.69168 -2.59375,-15.53125 z m 99.8125,16.28125 c 7.5137,10.93634 8.77338,28.77096 3.09375,44.0625 -2.92268,7.869 -13.23983,18.128 -21.25,21.125 -12.1632,4.3199 -22.54632,2.9954 -30.09375,-3.90625 7.61963,7.75794 18.37006,9.42522 31.09375,4.90625 8.01017,-2.997 18.32732,-13.22475 21.25,-21.09375 5.69547,-15.3342 4.41343,-33.22805 -3.15625,-44.15625 -0.3165,-0.33139 -0.6217,-0.63641 -0.9375,-0.9375 z m -184.40625,20.5 c -0.82987,-0.16035 -1.52588,4.52168 -1.46875,11.96875 0.13153,17.1504 4.0402,33.1389 11.75,48.0625 2.77246,5.13264 6.56646,10.03096 11,14.5 -4.00252,-4.19345 -7.43782,-8.75665 -10,-13.5 -7.7098,-14.9236 -11.58722,-30.9121 -11.71875,-48.0625 -0.0495,-6.44746 0.47779,-10.76819 1.15625,-11.71875 -0.23297,-0.80276 -0.49242,-1.20627 -0.71875,-1.25 z m 87.78125,23.9375 c 3.01723,3.39253 5.13859,8.10249 5.875,14.5625 -0.0268,7.0448 -2.39868,12.64865 -7.53125,17.78125 -10.89402,10.894 -33.79939,13.6241 -49.15625,5.875 -3.99088,-2.10967 -7.69306,-4.89799 -11.09375,-8.21875 3.67099,3.75978 7.73928,6.93161 12.125,9.25 15.35686,7.7491 38.23098,4.98775 49.125,-5.90625 5.13257,-5.1326 7.50449,-10.7052 7.53125,-17.75 -0.81455,-7.1455 -3.32909,-12.14812 -6.875,-15.59375 z m 38.0625,0.28125 c -1.11876,0.31332 -2.17201,5.34662 -2.15625,11.40625 0.0376,14.48906 4.35503,26.24051 12.46875,34 -7.46102,-7.75355 -11.43271,-19.12506 -11.46875,-33 -0.0153,-5.88155 0.98147,-10.77407 2.0625,-11.34375 -0.0553,-0.16487 -0.10204,-0.33328 -0.15625,-0.5 -0.25349,-0.47443 -0.49182,-0.6348 -0.75,-0.5625 z"
           id="path4126"
           inkscape:connector-curvature="0"
           transform="matrix(1.4070981,0,0,1.4070981,-260.13125,37.947853)" />
        <path
           style="opacity:0.8;fill:#ffffff;fill-opacity:1;filter:url(#filter5016)"
           d="m 416.03694,441.07222 -17.9375,17.59375 -17.09375,-16.625 -0.71875,0.6875 18.71875,18.21875 18.6875,-18.34375 z m -54.21875,14.65625 c 6.03928,16.15468 21.35971,29.73651 37.375,32.125 19.98125,2.60537 42.86323,-6.058 57.5,-20.6875 -0.30404,-0.45371 -0.87583,-1.22204 -1.34375,-1.875 -14.65187,14.37827 -37.27073,22.86191 -57.0625,20.28125 -15.25782,-2.27552 -29.89637,-14.70229 -36.46875,-29.84375 z m -71.4375,27.96875 c -0.0632,0.0504 -0.1245,0.10563 -0.1875,0.15625 5.03069,9.76528 8.44526,16.89088 13.75,25.75 8.66398,-6.53618 23.04804,-16.1262 36.75,-14.96875 8.66141,-0.1172 15.20192,3.37465 17.875,8.46875 -1.75354,-6.30006 -8.88143,-10.88395 -18.78125,-10.75 -13.70196,-1.15745 -28.08602,8.40132 -36.75,14.9375 -4.89612,-8.17671 -8.22277,-14.93504 -12.65625,-23.59375 z m 80.8125,1.75 c 3.37381,9.48116 2.98703,20.32258 -0.6875,28.65625 -3.34807,7.1493 -8.41566,13.50775 -13.75,17.28125 -2.16978,1.5349 -3.95701,3.12425 -3.96875,3.53125 -0.008,0.27935 0.66438,0.75786 1.6875,1.34375 0.71836,-0.69866 1.87268,-1.64154 3.21875,-2.59375 5.33434,-3.7735 10.37068,-10.13195 13.71875,-17.28125 3.97479,-9.01464 4.09823,-20.9468 -0.21875,-30.9375 z m 72.65625,22.8125 c -11.17905,-0.41851 -20.62771,13.59018 -24.53125,20.125 -6.71745,11.359 -12.48054,17.62485 -19.1875,20.90625 -9.27016,4.72769 -14.6569,0.7037 -24.34375,3.3125 0.29417,0.76608 0.5958,1.54737 0.90625,2.3125 9.68685,-2.6088 15.07359,1.38394 24.34375,-3.34375 6.70696,-3.2814 12.47005,-9.54725 19.1875,-20.90625 5.20472,-8.7131 20.28885,-30.7076 36.15625,-14.09375 1.13739,1.64203 2.11782,3.451 2.96875,5.375 -1.02478,-2.79608 -2.32862,-5.37865 -3.90625,-7.65625 -3.96685,-4.15346 -7.8674,-5.89175 -11.59375,-6.03125 z m 25.9375,13.625 c 0.95964,2.48898 1.79661,5.07708 2.5,7.78125 0.9299,3.575 2.02282,11.45 2.4375,17.5 1.62815,23.754 -3.42858,40.7319 -16,53.5 -15.18902,15.4267 -36.46913,17.346 -50.6875,4.5625 -3.76752,-3.38734 -6.75312,-7.61455 -8.9375,-12.53125 2.23007,5.89902 5.50866,10.91486 9.84375,14.8125 14.21837,12.7835 35.49848,10.8642 50.6875,-4.5625 12.57142,-12.7681 17.6594,-29.746 16.03125,-53.5 -0.41468,-6.05 -1.53885,-13.925 -2.46875,-17.5 -0.92076,-3.53984 -2.05316,-6.8971 -3.40625,-10.0625 z m -197.6875,15.34375 c 0.0665,0.32233 0.12265,0.66901 0.1875,1.0625 1.35766,7.43551 3.64676,15.26322 6.78125,22.78125 -2.66262,-6.81002 -4.65427,-13.8144 -5.875,-20.5 -0.34936,-2.11983 -0.73673,-3.16016 -1.09375,-3.34375 z m 63,13.8125 c -3.13992,0.10905 -6.28542,0.47195 -9.34375,0.9375 0.19595,0.69309 0.47616,1.67529 0.65625,2.3125 14.05653,-2.17381 30.38252,-1.81244 36.78125,12 -4.41634,-12.65265 -16.10171,-15.66649 -28.09375,-15.25 z m 44,9.8125 c 0.83176,2.13291 1.59767,4.31171 2.1875,6.53125 6.15018,23.5651 -0.58137,45.09765 -17.40625,55.71875 -8.78281,5.5443 -23.56326,8.3692 -34.6875,6.625 -18.78659,-3.27946 -38.67129,-17.97849 -47.78125,-34.84375 -1.37658,-2.66459 -2.61576,-5.3612 -3.75,-8.09375 1.36339,3.51608 2.89725,6.97017 4.65625,10.375 9.10996,16.86526 28.99466,31.56429 47.78125,34.84375 11.12424,1.7442 25.93594,-1.0807 34.71875,-6.625 16.82488,-10.6211 23.55643,-32.15365 17.40625,-55.71875 -0.80286,-3.02119 -1.94934,-5.93244 -3.125,-8.8125 z m 19.28125,0.75 c 0.24336,0.66078 0.51881,1.30868 0.78125,1.9375 -0.18552,-0.51571 -0.35736,-1.05893 -0.53125,-1.59375 -0.0796,-0.14902 -0.16909,-0.25173 -0.25,-0.34375 z"
           id="path4124-1"
           inkscape:connector-curvature="0"
           transform="matrix(1.4070981,0,0,1.4070981,-260.13125,37.947853)" />
      </g>
    </g>
  </g>
</svg>
